<svg xmlns="http://www.w3.org/2000/svg" width="300" height="300" viewBox="0 0 300 300">
  <!-- Spades -->
  <path d="M75,40 C75,60 50,75 50,95 C50,105 60,115 70,115 C80,115 90,105 90,95 C90,75 75,60 75,40 Z M75,115 L65,135 L85,135 Z" fill="#1a1a1a" fill-opacity="0.05" />
  
  <!-- Hearts -->
  <path d="M200,50 C180,30 150,45 150,75 C150,45 120,30 100,50 C80,70 90,110 150,140 C210,110 220,70 200,50 Z" fill="#e41e3a" fill-opacity="0.05" />
  
  <!-- Clubs -->
  <path d="M75,180 C65,180 55,190 55,200 C55,210 65,220 75,220 C70,230 65,240 65,245 L85,245 C85,240 80,230 75,220 C85,220 95,210 95,200 C95,190 85,180 75,180 Z" fill="#1a1a1a" fill-opacity="0.05" />
  
  <!-- Diamonds -->
  <path d="M150,160 L175,200 L150,240 L125,200 Z" fill="#e41e3a" fill-opacity="0.05" />
</svg>